<svg width="140" height="60" viewBox="0 0 140 60" fill="none" xmlns="http://www.w3.org/2000/svg">
<rect width="140" height="60" rx="30" fill="#0F0F0F"/>
<path d="M48.9345 37H34.0545L30.9745 44H26.8545L39.5345 16H43.4945L56.2145 44H52.0145L48.9345 37ZM47.5345 33.8L41.4945 20.08L35.4545 33.8H47.5345ZM69.5114 31.56L64.3914 36.76V44H60.3914V16H64.3914V31.64L79.5914 16H84.1514L72.1914 28.6L84.9114 44H80.2314L69.5114 31.56ZM105.849 37H90.9686L87.8886 44H83.7686L96.4486 16H100.409L113.129 44H108.929L105.849 37ZM104.449 33.8L98.4086 20.08L92.3686 33.8H104.449Z" fill="#404040"/>
</svg>